/* XPM */
static char *d4a47f750dbf42b4f7fa7097abb3e567SPDjYs773tfvO1nH[] = {
/* columns rows colors chars-per-pixel */
"60 60 182 2 ",
"   c #040404",
".  c #0A0403",
"X  c #060807",
"o  c #0C0906",
"O  c #060609",
"+  c #0B0609",
"@  c #070A0E",
"#  c #0C0B0C",
"$  c #130605",
"%  c #130B06",
"&  c #12060C",
"*  c #130D0D",
"=  c #190E0D",
"-  c #0F110E",
";  c #13110E",
":  c #1B120E",
">  c #060C11",
",  c #0C0E12",
"<  c #140D12",
"1  c #1A0D12",
"2  c #110F1A",
"3  c #071015",
"4  c #0E1214",
"5  c #0C1319",
"6  c #131213",
"7  c #1B1413",
"8  c #171916",
"9  c #1D1916",
"0  c #141519",
"q  c #1B161A",
"w  c #15191C",
"e  c #1B1A1C",
"r  c #23150E",
"t  c #26180F",
"y  c #221613",
"u  c #231A15",
"i  c #2A1D15",
"p  c #211619",
"a  c #241C1A",
"s  c #2A1E1B",
"d  c #1E201F",
"f  c #2B2017",
"g  c #26201C",
"h  c #2C221C",
"j  c #32231B",
"k  c #171723",
"l  c #111820",
"z  c #1C1E22",
"x  c #1B1F28",
"c  c #231F20",
"v  c #241E2A",
"b  c #1E2225",
"n  c #1E2429",
"m  c #232325",
"M  c #2C2322",
"N  c #252827",
"B  c #2E2926",
"V  c #24252A",
"C  c #28262C",
"Z  c #26292C",
"A  c #2A2A2D",
"S  c #322624",
"D  c #342923",
"F  c #32272B",
"G  c #352D2B",
"H  c #3C2E2C",
"J  c #33302B",
"K  c #3D322D",
"L  c #252733",
"P  c #2A2730",
"I  c #242A32",
"U  c #2B2D31",
"Y  c #312E34",
"T  c #322F38",
"R  c #2E3134",
"E  c #2F3439",
"W  c #323433",
"Q  c #323137",
"!  c #313237",
"~  c #333237",
"^  c #333335",
"/  c #333534",
"(  c #303437",
")  c #333436",
"_  c #343434",
"`  c #353537",
"'  c gray21",
"]  c #333334",
"[  c #3D3532",
"{  c #393937",
"}  c #313139",
"|  c #333238",
" . c #32303B",
".. c #32323A",
"X. c #31313B",
"o. c #333438",
"O. c #353638",
"+. c #373739",
"@. c #34353A",
"#. c #36353B",
"$. c #35333E",
"%. c #37343D",
"&. c #34373C",
"*. c #35353F",
"=. c #37373F",
"-. c #343639",
";. c #393738",
":. c #3A373C",
">. c #353A3C",
",. c #3A383B",
"<. c #3A3A3A",
"1. c #39383D",
"2. c #393A3E",
"3. c #3B393C",
"4. c #3D3B3E",
"5. c #3C3C3C",
"6. c #3E3C3D",
"7. c #3D3F3E",
"8. c #3B3A3D",
"9. c #433227",
"0. c #43342B",
"q. c #49362F",
"w. c #45382F",
"e. c #4D3A2E",
"r. c #50392D",
"t. c #433633",
"y. c #433934",
"u. c #4C3B33",
"i. c #443C3A",
"p. c #4B3E3B",
"a. c #503D36",
"s. c #513F3C",
"d. c #47423E",
"f. c #4D423D",
"g. c #52433B",
"h. c #5D463B",
"j. c #5D4A3E",
"k. c #61463B",
"l. c #60493E",
"z. c #3B3C40",
"x. c #3E3D42",
"c. c #3C3C44",
"v. c #3E3C47",
"b. c #3E3D41",
"n. c #3F3D48",
"m. c #403F47",
"M. c #3B4043",
"N. c #3F4044",
"B. c #3F4447",
"V. c #3D4244",
"C. c #404241",
"Z. c #414244",
"A. c #454346",
"S. c #4C4743",
"D. c #40404A",
"F. c #43424A",
"G. c #424149",
"H. c #45454D",
"J. c #454749",
"K. c #484A49",
"L. c #4D4F4E",
"P. c #484A4C",
"I. c #544542",
"U. c #554843",
"Y. c #5D4C42",
"T. c #554D4A",
"R. c #5D5145",
"E. c #5F504B",
"W. c #494951",
"Q. c #4C4A55",
"!. c #4C4D51",
"~. c #4E4E58",
"^. c #4F5356",
"/. c #545655",
"(. c #555756",
"). c #52525A",
"_. c #585A59",
"`. c #624E42",
"'. c #624F48",
"]. c #695145",
"[. c #62514C",
"{. c #685750",
/* pixels */
"6 W 7.m 0 4 k ~ :.4.;._ 2.Z 4 > k L m.m.z. .v.Q.~.n.z.$.X.L V V C T $.%.T U P v v k 2 , k I I b n (.L.W - 4 6 6 0 b.+.A ",
"m R ( Z 0 0 C 1.<.A.4._ N.B.w w V E m.H.N.c.n.W.).H.#...X.X.L V U ~ @.@.T T P C P v w k n E E I N._.(.K.e , , 6 C >.` ( ",
"N N A Z w 4 U 2.` 7.J N o.M.@ 3 Z U z.$.~ U U U I U Z Z Z Z P Z C C A C C C C V C n w 2 n R I Z R <.M.7.8 4 w 3 Z R A R ",
"9 d e N 5 @ C W @.G N N R ( , 4 w m U ..+.U N e z m Z Z C m V V m N N N C N N m V m 8 3 b I n b W { <._ 6 8 4 X b N N b ",
"- 8 4 8 0 > w m e 0 # e z z w , w 8 4 # 6 6 e e e 6 * = 6 6 6 6 q 8 6 6 6 8 6 < e e 6 6 b N m Z 0 : 6 e 6 6 4 0 0 k d 0 ",
"- 6 - 6 0 4 0 0 6 < 6 6 6 6 z @ 6 # ; * * * & + 7 * & 1 6 7 1 7 1 7 * 6 * 6 1 = # ; # < e d z g ; 6 : < 8 e 8 w , 4 4 4 ",
"6 - 6 e w 0 8 6 q e 7 e , 6 6 O 6 6 = 1 6 7 q p 1 1 p p 1 1 = 1 1 1 1 1 1 7 1 1 1 1 1 7 9 q 7 q 7 9 s 7 6 e e e e m 6 , ",
"8 o m A w 6 e 0 a e a M 7 7 o 1 6 1 1 7 7 1 1 = 1 p 1 & 1 p p 1 1 1 p 1 1 p p 1 7 1 * 1 $ < 1 1 M u c M 9 7 6 b @.>.q , ",
"; % N B 0 0 q q c t.F S S 1 . & + < 1 < < 1 < = < 1 1 < 1 < 1 1 1 1 1 1 1 1 1 1 1 1 < < & & q a S t.t.F S p q w :.T 1 6 ",
"; ; W J w 6 q c F t.t.t.i s & . + < # # & & # # & & & & & & & & & & & & & & & & & & & & $ & c M 0.s.t.t.c s q 1 m.:.6 6 ",
"; * ] ] 0 < q c m.H t.m.i s $ $ . # # . O @ o X + o . . + + & + + & + $ & + + . + + . .   . a S r.m.u.i.c s q # :.:.q < ",
"* * ] ] 0 < q e S t.Y.I.f t $ %     .               .     . . . . . . . . . .   . . . . . $ p a ].].m.9.F a p 7 Y @.q , ",
"; * <.5.z w 6 q 1 0.s.I.j i i f y u u u u u u u g u u u u u u a a a u u g g g g a a a f u f h f Y.'.q.s S 7 6 e m T 0 6 ",
"; 7 K.!.U z < 6 1 c D I.j i i r i i i i i i i f i i f i i i i i i f f i t f f h i i i f i i f i '.E.D r * * 6 C m G 8 0 ",
"6 6 K.).@.Z 6 6 p c u j i g.R.j.h.h.h.h.h.h.h.h.h.h.h.h.h.j.l.j.j.j.j.j.j.j.j.j.j.R.j.`.`.j.].k.s i p s a 9 e C A W 0 4 ",
"6 # C.P.#.U w , p s s f g.R.g.j.h.h.h.h.h.h.j.h.h.h.h.h.h.k.k.k.l.j.j.j.j.j.j.j.j.`.l.j.k.k.].].9.s s s 9 # N A @.+.6 6 ",
"6 6 ( 5.T Z 4 6 9 g B K f.E.p.u.u.w.w.u.u.u.u.u.e.e.e.e.r.r.r.r.r.r.r.r.e.e.e.g.e.g.e.e.r.s.'.{.w.J B g 8 ; N A -.+.0 , ",
"- - G ` U V 0 0 e e h K f.I.t.9.t.0.0.9.9.K 0.0.0.K 0.9.9.9.r.9.q.9.q.0.0.0.K w.K 0.0.y.q.q.m.].y.{ B g : 6 b N ( +.6 ; ",
"- 6 @.m.@.A < 4 # * 9 u u a y y y i u y r u u u u u u u t t r t t u y p t r u i u u i u r r t i u 9 7 . 6 - m Z ( >.0 4 ",
"; 6 4.F.z.U 0 ,     7 : % : y : = : r : : 7 7 7 : 6 ; : 7 7 7 : 7 7 7 7 9 : : 9 : r r r r i t y 9 : *   8 4 C A -.{ 0 < ",
"- ; ( 7.U Z 0 6 .   ; r h t.t.H : : = $ o $ o . + O + + X @ + O + + O O o o o $ o $ : r s 0.9.D h g     X 8 e N ( { 0 - ",
"- ; U W Z V < 6 X   * ; h t.f.p.u r $ .   . .     O O O     O O   O O           o . = u H g.y.0.h d . . - e C U ( { 6 4 ",
"; - G ~ I C 6 # # . o $ 7 M H p.u : o .         O             O         .   .   o . = u G p.G h u o .   6 # m N U ~ 0 6 ",
"6 ; A U V V w 6 X     . : a M t.a 7 % o o . . .                         . . . .   . y : M y.s * %     X - 6 C Z C Y 6 6 ",
"; 4 m N Z m 2 , X     o % r 7 y y 9 ; ; ; 7 7 ; * ; : * : : : : ; : : : : 9 : : ; : : 9 9 g g 8 .   X . # , V C C V q 6 ",
"6 ; c m V V 0 4 +     o * = p a 7 u : 9 ; 7 : y 7 u y : r r r r r 9 : : r : : 9 u 9 9 : : ; : : .     o , 6 C A U A e < ",
"8 - d m V V 0 , X     . = 7 a h h J [ d.K K _ t.K K K 9.9.9.9.9.0.K 0.K w.K y.y.K [ d.d.i.B 9 8 X     X , 6 C A Y U 0 0 ",
"; ; m N v V w ,       . * 7 s M H i.d.T.i.[ H K t.t.w.w.0.q.0.0.0.0.K 0.w.y.y.y.y.y.d.T.d.J g 8 o .     , 6 V C @...q < ",
"; - A A V V 0 , +       o $ 1 a 7 p y u y p 7 u p u u p t u t y u u r u y r y : u 9 r u f : ; o       O < < V Z :.1.6 < ",
"- : A ~ V m w , O X       o 1 9 7 y : p 7 a p p 1 7 1 7 7 : 7 r 7 9 7 7 7 7 y y 9 r r 9 9 : % o         6 0 V P @.4.7 < ",
"- ; G o.V m w , O     . . o = 9 a s a a 7 7 # + + # + + + # + & . . o o o * : 9 u u u f u : .         O < 0 z U ..4.6 6 ",
"* 6 Y @.V v w , .         . * 7 a M s s 1 1 < + .       O     X   . .   . $ 7 u a a f g t : $ .   X     2 6 v U ~ i.6 0 ",
": - W ` Z b w # X   .         # 7 a a a p 7 $ .     .           . . . . . . 1 u a a a a 6 .       X     4 4 V A ~ <.6 ; ",
": # ] W Z b w - X           X . * 7 q a p 7 * + . . . .   X .     . . . . $ = p a p 9 7 #         X X   3 0 Z Z ~ { 6 ; ",
": % J ] Z b w 3 @               . & 1 9 q 9 1 < * ; 1 6 ; ; ; ; * 6 = 6 1 1 7 7 p 7 1 o X     X       X 4 6 V A ( { ; ; ",
"6 * ] ] Z b 0 - @ X               o * 7 7 q 7 7 7 6 7 6 8 8 8 8 6 7 7 7 p q 7 7 p 7 & X               X 4 0 V A ` { ; ; ",
": ; ] J Z b 4 4                   . * 6 7 9 7 ; & # o . o # X # o o o & * 7 7 8 9 ; o                   , 0 V A { { : ; ",
": ; G A U V 0 3 O       O     O   . # * 6 6 ; & . .                   . * ; 7 9 ; -         X           , 0 V A ` { ; 8 ",
"7 ; N A U U w - O       O   O O     . # * 6 # + o X             X       X # * < - o       X           O , w V Z ` { : 6 ",
"7 o g N ~ R w @ O               X     X # # @ O                 X         + # 6 # X     X             O , 0 V Z ( _ - ; ",
"; ; a N U R 5 - O X                 X X X                                                               , 0 V C A J 8 : ",
"; 6 a A U R 0 > +                       X                                 O   O   X                     , 0 C C A A ; ; ",
": : M A A Z 4 - O           O       X               X                                               O   , 2 C C W J 6 ; ",
"; 6 N A Z b 6 4 @ X           O         O                                                         X     , 2 V C +.{ 6 ; ",
"* : N N z w 4 4 X       O   O                                                                     .     , 0 V A -.{ 6 - ",
"% ; c g w 4 4 3 O             O                     O                 O           X                   X , 6 V A { W 8 ; ",
"; * c m e , 4 , +             O O                                                             X       + 2 < C A ( { 8 - ",
": ; m m e 3 5 , O           O                                                                         O , 5 Z A R J 8 ; ",
"* # B U z z 5 , O O     O     O     X X   X     X   X   O     O       . .                             X @ 6 C C Y A 9 ; ",
": * F ] Z V w , O X         O O                                   . . .   .                           X @ 6 V C A Z 0 6 ",
"* * G @.C V 0 , #                                               . .         .                         o @ 6 m C C C 8 6 ",
"* : B W V c 0 , .                                                                                       # 0 V A C C 0 6 ",
"* 7 M C c 0 6 , .       .     X                                 O   O       O       O       O         X # 0 m A Z Z e 6 ",
"* : 9 e 0 < 4 < # o   . .   X X X X X X X     X X   X   X X X X O O O O   + O O O O O O O O O O X   X   # 0 w V V V w 6 ",
"= * 1 6 6 , # 4 # # o # # # # , @ # # # # # 3 # # # - - X - > > @ , > , , > > > , > > , > > > # # # , @ , 0 6 z w e 6 4 ",
"7 6 , 6 6 4 4 4 4 ; 4 ; 4 - 3 4 4 1 6 4 0 4 6 6 4 - 4 4 3 - - 4 4 4 4 4 4 4 4 4 4 4 0 < 0 < 6 5 6 6 6 , 0 6 @ 0 # 0 6 4 ",
"7 k C V 4 > w &.z.E ( V.&.R E I C z z m v z m z V A b b b b N R E E E o.o.E E U V b n U I z V Z V m m V n b 3 > e n N Z ",
"V C U Z 5 l n B.z.E M.J.c.E &.R A V v C V v m m A ~ N N N b N E E E E E o.E R R I Z I E U z V n v C A Z Z b 0 0 b Z J R ",
"e v Z n 5 3 3 n n A ( >.R n R n z w 0 0 w 0 0 w 0 w 4 0 e d m A U U A U U U U Z V Z Z U V w k w w m U U V w 5 0 b Z R A ",
"w m I L l 5 3 4 w n A E n n I n l 4 , < , , , < , 4 # - 4 3 d b n V n n n n V n n n V b w 5 4 O 6 w n Z z 4 4 4 b V V Z "
};
